<svg xmlns="http://www.w3.org/2000/svg" width="35" height="35" viewBox="0 0 35 35">
<g>
<path d="M25.5212 35.0001C20.2945 35.0001 16.042 30.7476 16.042 25.5209C16.042 20.2942 20.2945 16.0417 25.5212 16.0417C30.7478 16.0417 35.0003 20.2942 35.0003 25.5209C35.0003 30.7476 30.7478 35.0001 25.5212 35.0001ZM25.5212 17.5001C21.098 17.5001 17.5003 21.0992 17.5003 25.5209C17.5003 29.9426 21.098 33.5417 25.5212 33.5417C29.9443 33.5417 33.542 29.9426 33.542 25.5209C33.542 21.0992 29.9443 17.5001 25.5212 17.5001Z"></path>
<path d="M24.0625 29.1667C23.8691 29.1662 23.6837 29.0897 23.5462 28.9538L20.6296 26.0371C20.4968 25.8996 20.4233 25.7154 20.4249 25.5242C20.4266 25.333 20.5033 25.1501 20.6385 25.0149C20.7737 24.8797 20.9565 24.803 21.1477 24.8014C21.3389 24.7997 21.5231 24.8732 21.6606 25.006L24.026 27.3715L28.6169 22.1244C28.6797 22.0517 28.7563 21.9922 28.8422 21.9492C28.9281 21.9062 29.0217 21.8806 29.1176 21.8739C29.2134 21.8672 29.3096 21.8795 29.4007 21.9101C29.4918 21.9407 29.5759 21.989 29.6482 22.0522C29.7206 22.1155 29.7797 22.1924 29.8222 22.2785C29.8648 22.3646 29.8899 22.4583 29.8961 22.5542C29.9023 22.6501 29.8895 22.7463 29.8584 22.8372C29.8273 22.9281 29.7786 23.0119 29.715 23.084L24.6108 28.9173C24.5449 28.9924 24.4643 29.0532 24.374 29.0961C24.2838 29.139 24.1857 29.163 24.0858 29.1667H24.0625ZM13.8542 30.625H3.64583C2.67925 30.6238 1.75259 30.2394 1.06912 29.5559C0.385643 28.8724 0.00115781 27.9457 0 26.9792L0 8.02083C0 6.00979 1.63625 4.375 3.64583 4.375H6.5625C6.75589 4.375 6.94135 4.45182 7.0781 4.58857C7.21484 4.72531 7.29167 4.91078 7.29167 5.10417C7.29167 5.29755 7.21484 5.48302 7.0781 5.61977C6.94135 5.75651 6.75589 5.83333 6.5625 5.83333H3.64583C2.43979 5.83333 1.45833 6.81479 1.45833 8.02083V26.9792C1.45833 28.1852 2.43979 29.1667 3.64583 29.1667H13.8542C14.0476 29.1667 14.233 29.2435 14.3698 29.3802C14.5065 29.517 14.5833 29.7024 14.5833 29.8958C14.5833 30.0892 14.5065 30.2747 14.3698 30.4114C14.233 30.5482 14.0476 30.625 13.8542 30.625ZM24.0625 13.125C23.8691 13.125 23.6836 13.0482 23.5469 12.9114C23.4102 12.7747 23.3333 12.5892 23.3333 12.3958V8.02083C23.3333 6.81479 22.3519 5.83333 21.1458 5.83333H18.2292C18.0358 5.83333 17.8503 5.75651 17.7136 5.61977C17.5768 5.48302 17.5 5.29755 17.5 5.10417C17.5 4.91078 17.5768 4.72531 17.7136 4.58857C17.8503 4.45182 18.0358 4.375 18.2292 4.375H21.1458C23.1554 4.375 24.7917 6.00979 24.7917 8.02083V12.3958C24.7917 12.5892 24.7148 12.7747 24.5781 12.9114C24.4414 13.0482 24.2559 13.125 24.0625 13.125Z"></path>
<path d="M16.7708 8.75H8.02083C6.81479 8.75 5.83333 7.76854 5.83333 6.5625V3.64583C5.83333 3.45245 5.91016 3.26698 6.0469 3.13023C6.18365 2.99349 6.36911 2.91667 6.5625 2.91667H8.82292C9.16271 1.25417 10.6342 0 12.3958 0C14.1575 0 15.629 1.25417 15.9687 2.91667H18.2292C18.4226 2.91667 18.608 2.99349 18.7448 3.13023C18.8815 3.26698 18.9583 3.45245 18.9583 3.64583V6.5625C18.9583 7.76854 17.9769 8.75 16.7708 8.75ZM7.29167 4.375V6.5625C7.29167 6.75589 7.36849 6.94135 7.50523 7.0781C7.64198 7.21484 7.82745 7.29167 8.02083 7.29167H16.7708C16.9642 7.29167 17.1497 7.21484 17.2864 7.0781C17.4232 6.94135 17.5 6.75589 17.5 6.5625V4.375H15.3125C15.1191 4.375 14.9336 4.29818 14.7969 4.16143C14.6602 4.02469 14.5833 3.83922 14.5833 3.64583C14.5833 2.43979 13.6019 1.45833 12.3958 1.45833C11.1898 1.45833 10.2083 2.43979 10.2083 3.64583C10.2083 3.83922 10.1315 4.02469 9.99476 4.16143C9.85802 4.29818 9.67255 4.375 9.47917 4.375H7.29167ZM19.6875 13.125H5.10417C4.91078 13.125 4.72531 13.0482 4.58857 12.9114C4.45182 12.7747 4.375 12.5892 4.375 12.3958C4.375 12.2024 4.45182 12.017 4.58857 11.8802C4.72531 11.7435 4.91078 11.6667 5.10417 11.6667H19.6875C19.8809 11.6667 20.0664 11.7435 20.2031 11.8802C20.3398 12.017 20.4167 12.2024 20.4167 12.3958C20.4167 12.5892 20.3398 12.7747 20.2031 12.9114C20.0664 13.0482 19.8809 13.125 19.6875 13.125ZM15.3125 17.5H5.10417C4.91078 17.5 4.72531 17.4232 4.58857 17.2864C4.45182 17.1497 4.375 16.9642 4.375 16.7708C4.375 16.5774 4.45182 16.392 4.58857 16.2552C4.72531 16.1185 4.91078 16.0417 5.10417 16.0417H15.3125C15.5059 16.0417 15.6914 16.1185 15.8281 16.2552C15.9648 16.392 16.0417 16.5774 16.0417 16.7708C16.0417 16.9642 15.9648 17.1497 15.8281 17.2864C15.6914 17.4232 15.5059 17.5 15.3125 17.5ZM12.3958 21.875H5.10417C4.91078 21.875 4.72531 21.7982 4.58857 21.6614C4.45182 21.5247 4.375 21.3392 4.375 21.1458C4.375 20.9524 4.45182 20.767 4.58857 20.6302C4.72531 20.4935 4.91078 20.4167 5.10417 20.4167H12.3958C12.5892 20.4167 12.7747 20.4935 12.9114 20.6302C13.0482 20.767 13.125 20.9524 13.125 21.1458C13.125 21.3392 13.0482 21.5247 12.9114 21.6614C12.7747 21.7982 12.5892 21.875 12.3958 21.875Z"></path>
</g>
</svg>