<svg xmlns="http://www.w3.org/2000/svg" xmlns:xlink="http://www.w3.org/1999/xlink" width="414.855" height="381.392" viewBox="0 0 414.855 381.392">
  <defs>
    <clipPath id="clip-path">
      <rect id="Rectángulo_7535" data-name="Rectángulo 7535" width="414.856" height="381.392" fill="#fa79b0"/>
    </clipPath>
  </defs>
  <g id="Grupo_11471" data-name="Grupo 11471" transform="translate(0 0)">
    <g id="Grupo_11470" data-name="Grupo 11470" transform="translate(0 0)" clip-path="url(#clip-path)">
      <path id="Trazado_21497" data-name="Trazado 21497" d="M298.384,144.035C298.384,65.255,233.593,1.2,153.9,1.2S9.408,65.255,9.408,144.035A139.558,139.558,0,0,0,60.056,252.273l-35.009,65.52a6.232,6.232,0,0,0,0,5.154,3.606,3.606,0,0,0,4.469,1.473l55.117-10.308,22.346,50.8a5.011,5.011,0,0,0,4.469,2.945c1.487,0,3.726-.736,4.469-2.209L153.9,292.024l37.984,73.626q1.115,2.209,4.469,2.209a4.636,4.636,0,0,0,4.469-2.945l22.346-50.8,55.109,10.308c1.487,0,3.725,0,4.477-1.473s1.487-3.681,0-5.154l-35.009-65.52a139.552,139.552,0,0,0,50.64-108.238M112.19,352.4l-20.107-44.9c-.751-2.216-2.982-2.952-5.213-2.952l-49.16,9.571,29.8-55.956a145.811,145.811,0,0,0,78.942,27.978Zm157.9-38.286-49.16-9.571a4.247,4.247,0,0,0-5.213,2.952l-20.107,44.9-34.266-66.264a148.015,148.015,0,0,0,78.95-27.978ZM153.9,277.3c-74.48,0-134.81-59.637-134.81-133.264S79.419,10.771,153.9,10.771,288.71,70.409,288.71,144.035,228.38,277.3,153.9,277.3" transform="translate(59.86 7.637)" fill="#fa79b0"/>
      <path id="Trazado_21498" data-name="Trazado 21498" d="M113.351,7.5c-53.629,0-97.57,43.44-97.57,96.458s43.94,96.443,97.57,96.443,97.562-43.432,97.562-96.443S167.717,7.5,113.351,7.5m0,184.066c-48.417,0-88.631-39.022-88.631-87.608S64.19,16.335,113.351,16.335s88.632,39.022,88.632,87.623-39.479,87.608-88.632,87.608" transform="translate(100.409 47.721)" fill="#fa79b0"/>
      <path id="Trazado_21499" data-name="Trazado 21499" d="M144.378,38.7l-23.1-22.824a5.556,5.556,0,0,0-2.975-1.473,5.581,5.581,0,0,0-2.974,1.473l-43.2,42.7L52.021,38.7c-1.487-1.48-4.469-1.48-6.707,0L22.232,61.522a5.577,5.577,0,0,0-1.495,2.945,5.6,5.6,0,0,0,1.495,2.945L68.41,113.06a5.644,5.644,0,0,0,2.974,1.465,5.663,5.663,0,0,0,2.982-1.465l69.26-68.48c2.982-.729,2.982-3.681.751-5.883m-72.25,65.528L32.657,65.2l16.382-16.2L69.154,68.885c1.487,1.465,4.469,1.465,6.7,0l42.453-41.967,16.382,16.2Z" transform="translate(131.942 91.63)" fill="#fa79b0"/>
      <path id="Trazado_21500" data-name="Trazado 21500" d="M76.959,0a28.132,28.132,0,0,0-28.3,27.985,28.308,28.308,0,0,0,56.611,0C105.268,12.516,91.854,0,76.959,0m0,45.648a18.408,18.408,0,1,1,18.62-18.407c0,10.308-8.938,18.407-18.62,18.407" transform="translate(309.587 0.001)" fill="#fa79b0"/>
      <path id="Trazado_21501" data-name="Trazado 21501" d="M32.771,36.8C14.895,36.8,0,51.526,0,69.189s14.895,32.4,32.771,32.4,32.771-14.725,32.771-32.4S50.648,36.8,32.771,36.8m0,55.22A22.826,22.826,0,1,1,55.86,69.189,23.074,23.074,0,0,1,32.771,92.021" transform="translate(0 234.153)" fill="#fa79b0"/>
      <path id="Trazado_21502" data-name="Trazado 21502" d="M57.286,11.9a6.627,6.627,0,1,1-6.707,6.626A6.662,6.662,0,0,1,57.286,11.9" transform="translate(321.816 75.717)" fill="#fa79b0"/>
      <path id="Trazado_21503" data-name="Trazado 21503" d="M56.673,38.8a6.627,6.627,0,1,1-6.7,6.619,6.656,6.656,0,0,1,6.7-6.619" transform="translate(317.96 246.878)" fill="#fa79b0"/>
      <path id="Trazado_21504" data-name="Trazado 21504" d="M18.744.6A6.662,6.662,0,0,1,25.452,7.22a6.708,6.708,0,0,1-13.415,0A6.662,6.662,0,0,1,18.744.6" transform="translate(76.587 3.825)" fill="#fa79b0"/>
      <path id="Trazado_21505" data-name="Trazado 21505" d="M8.628,12.5a6.631,6.631,0,1,1-6.707,6.626A6.657,6.657,0,0,1,8.628,12.5" transform="translate(12.223 79.535)" fill="#fa79b0"/>
      <path id="Trazado_21506" data-name="Trazado 21506" d="M13.073,30a6.63,6.63,0,1,1-6.7,6.626A6.668,6.668,0,0,1,13.073,30" transform="translate(40.549 190.881)" fill="#fa79b0"/>
      <path id="Trazado_21507" data-name="Trazado 21507" d="M46.557,50a6.63,6.63,0,1,1-6.7,6.626A6.668,6.668,0,0,1,46.557,50" transform="translate(253.596 318.134)" fill="#fa79b0"/>
    </g>
  </g>
</svg>
