<svg xmlns="http://www.w3.org/2000/svg" width="35" height="35" viewBox="0 0 35 35">
<g>
<path d="M29.925 13.3589C30.9204 12.384 31.5 11.0523 31.5 9.625C31.5 6.73025 29.145 4.375 26.25 4.375C25.2935 4.375 24.3525 4.63791 23.5276 5.1355C23.3952 5.21549 23.2999 5.34477 23.2627 5.49496C23.2255 5.64514 23.2495 5.80394 23.3293 5.93647C23.4957 6.2125 23.8546 6.30048 24.1303 6.13471C24.7734 5.74677 25.506 5.54169 26.25 5.54169C28.5013 5.54169 30.3333 7.37345 30.3333 9.625C30.3333 11.0115 29.6389 12.2896 28.4734 13.0455C27.4947 13.6875 26.254 13.8726 25.1209 13.5499C24.8145 13.4616 24.4886 13.6405 24.3997 13.9504C24.3573 14.0992 24.3757 14.2588 24.4509 14.394C24.5261 14.5292 24.652 14.6291 24.8008 14.6716C25.272 14.8065 25.7598 14.8749 26.25 14.8749C27.1672 14.8749 28.0539 14.6247 28.841 14.1729C31.8356 15.2579 33.8333 18.0852 33.8333 21.2916V24.2083H28.5141C28.101 20.3121 25.6497 16.9026 22.0743 15.2837C23.2121 14.1252 23.9166 12.5398 23.9166 10.7917C23.9167 7.25348 21.0381 4.375 17.5 4.375C13.9619 4.375 11.0833 7.25348 11.0833 10.7917C11.0833 12.5404 11.7882 14.1263 12.9266 15.2848C11.7234 15.8315 10.6074 16.5963 9.66089 17.5374C7.84643 19.3571 6.74228 21.6925 6.4802 24.2084H1.16669V21.2918C1.16669 19.2717 1.95569 17.3671 3.38611 15.9307C4.17354 15.1482 5.13222 14.5513 6.16444 14.1762C6.95174 14.6262 7.83569 14.875 8.75 14.875C9.23993 14.875 9.72754 14.8066 10.1992 14.6716C10.348 14.6291 10.4738 14.5293 10.549 14.394C10.6242 14.2588 10.6427 14.0993 10.6003 13.9504C10.5114 13.6406 10.1855 13.4619 9.87909 13.55C8.74658 13.8733 7.50647 13.6884 6.52381 13.0441C5.36115 12.2896 4.66669 11.0116 4.66669 9.625C4.66669 7.37345 6.49872 5.54169 8.75 5.54169C9.49395 5.54169 10.2266 5.74677 10.8697 6.13471C11.0023 6.21432 11.161 6.23817 11.3111 6.20101C11.4612 6.16386 11.5905 6.06873 11.6707 5.93647C11.837 5.6605 11.7481 5.30216 11.4724 5.1355C10.6475 4.63791 9.70648 4.375 8.75 4.375C5.85498 4.375 3.5 6.73025 3.5 9.625C3.5 11.0512 4.07866 12.3819 5.07117 13.3558C4.13968 13.7895 3.29044 14.3813 2.56122 15.1052C0.909727 16.764 3.6079e-08 18.9609 3.6079e-08 21.2917V24.7917C-2.6912e-05 24.8683 0.0150425 24.9442 0.044347 25.0149C0.0736516 25.0857 0.116617 25.15 0.170788 25.2042C0.224958 25.2584 0.289273 25.3013 0.360055 25.3307C0.430838 25.36 0.506702 25.375 0.583311 25.375H6.41662V30.0417C6.41659 30.1183 6.43166 30.1942 6.46097 30.2649C6.49027 30.3357 6.53324 30.4 6.58741 30.4542C6.64158 30.5084 6.70589 30.5513 6.77668 30.5807C6.84746 30.61 6.92332 30.625 6.99993 30.625H27.9999C28.0765 30.625 28.1524 30.61 28.2232 30.5807C28.294 30.5513 28.3583 30.5084 28.4125 30.4542C28.4666 30.4 28.5096 30.3357 28.5389 30.2649C28.5682 30.1942 28.5833 30.1183 28.5832 30.0417V25.375H34.4166C34.4932 25.375 34.569 25.36 34.6398 25.3307C34.7106 25.3013 34.7749 25.2584 34.8291 25.2042C34.8832 25.15 34.9262 25.0857 34.9555 25.0149C34.9848 24.9442 34.9999 24.8683 34.9999 24.7917V21.2917C35 17.8426 32.9956 14.7744 29.925 13.3589ZM12.25 10.7917C12.25 7.89694 14.605 5.54169 17.5 5.54169C20.395 5.54169 22.75 7.89694 22.75 10.7917C22.75 13.6864 20.395 16.0417 17.5 16.0417C14.605 16.0417 12.25 13.6864 12.25 10.7917ZM27.4167 29.4583H7.58331V25.375C7.58331 22.73 8.61438 20.2392 10.4852 18.3628C11.4707 17.3825 12.6655 16.6221 13.9465 16.1302C14.9647 16.8102 16.1864 17.2083 17.5 17.2083C18.8158 17.2083 20.0396 16.809 21.0588 16.127C24.8717 17.592 27.4167 21.268 27.4167 25.375V29.4583Z"></path>
</g>
</svg>