<svg xmlns="http://www.w3.org/2000/svg" width="35" height="35" viewBox="0 0 35 35">
<g>
<path d="M20.5584 19.3258C20.4861 19.351 20.4194 19.3902 20.3622 19.4412C20.305 19.4922 20.2584 19.5539 20.2251 19.6229C20.1917 19.6919 20.1723 19.7667 20.1679 19.8432C20.1635 19.9197 20.1742 19.9963 20.1994 20.0687C20.2246 20.141 20.2638 20.2077 20.3148 20.2649C20.3658 20.3221 20.4275 20.3687 20.4965 20.4021C20.5655 20.4354 20.6403 20.4548 20.7168 20.4592C20.7933 20.4636 20.8699 20.4529 20.9423 20.4277C23.2886 19.6146 25.2709 17.9964 26.5373 15.8604C27.8037 13.7244 28.2724 11.2088 27.8601 8.76002C27.4478 6.31128 26.1812 4.08783 24.2851 2.48432C22.389 0.880815 19.9861 0.000976563 17.5029 0.000976562C15.0197 0.000976563 12.6168 0.880815 10.7208 2.48432C8.82471 4.08783 7.55811 6.31128 7.14581 8.76002C6.7335 11.2088 7.20216 13.7244 8.46859 15.8604C9.73503 17.9964 11.7173 19.6146 14.0636 20.4277C14.2098 20.4785 14.3702 20.4692 14.5095 20.4018C14.6488 20.3343 14.7557 20.2143 14.8065 20.0681C14.8573 19.9219 14.848 19.7615 14.7805 19.6222C14.7131 19.4829 14.5931 19.376 14.4469 19.3252C13.4383 18.9732 12.4979 18.4503 11.6667 17.7794V17.1441C11.6655 16.2553 11.9342 15.387 12.4372 14.6541C12.9402 13.9213 13.6538 13.3583 14.4836 13.0398C15.3654 13.6645 16.4194 14 17.5 14C18.5807 14 19.6347 13.6645 20.5164 13.0398C21.3463 13.3583 22.0599 13.9213 22.5629 14.6541C23.0658 15.387 23.3345 16.2553 23.3334 17.1441V17.7817C22.5036 18.4515 21.565 18.9738 20.5584 19.3258ZM13.4167 8.74997C13.4167 7.94236 13.6562 7.15289 14.1049 6.48139C14.5535 5.80989 15.1913 5.28652 15.9374 4.97746C16.6835 4.6684 17.5046 4.58754 18.2966 4.74509C19.0887 4.90265 19.8163 5.29155 20.3874 5.86261C20.9584 6.43368 21.3473 7.16126 21.5049 7.95335C21.6625 8.74544 21.5816 9.56646 21.2725 10.3126C20.9635 11.0587 20.4401 11.6965 19.7686 12.1451C19.0971 12.5938 18.3076 12.8333 17.5 12.8333C16.4174 12.8321 15.3795 12.4015 14.614 11.636C13.8485 10.8704 13.4179 9.83255 13.4167 8.74997ZM21.4667 12.1759C22.1254 11.4151 22.5515 10.4811 22.6945 9.48504C22.8374 8.48897 22.691 7.4728 22.2728 6.55754C21.8546 5.64228 21.1822 4.86648 20.3356 4.32253C19.489 3.77858 18.504 3.48938 17.4977 3.48938C16.4914 3.48938 15.5063 3.77858 14.6597 4.32253C13.8132 4.86648 13.1407 5.64228 12.7225 6.55754C12.3043 7.4728 12.158 8.48897 12.3009 9.48504C12.4438 10.4811 12.87 11.4151 13.5287 12.1759C12.6839 12.6078 11.9638 13.2488 11.4369 14.0378C10.9101 14.8268 10.5939 15.7375 10.5187 16.6833C7.19369 12.9354 7.42002 7.23097 11.0326 3.75897C14.6452 0.287548 20.3543 0.287548 23.9674 3.75897C27.58 7.23097 27.8069 12.9354 24.4814 16.6833C24.4059 15.737 24.0891 14.8258 23.5614 14.0368C23.0336 13.2477 22.3124 12.607 21.4667 12.1759Z"></path>
<path d="M12.4831 34.7732C12.6579 34.9022 12.8655 34.9794 13.0821 34.996C13.2987 35.0126 13.5157 34.9679 13.7081 34.8671L17.5038 32.8948L21.299 34.8677C21.492 34.968 21.7091 35.0124 21.9259 34.9958C22.1427 34.9793 22.3506 34.9025 22.5261 34.774C22.7016 34.6456 22.8377 34.4707 22.9191 34.269C23.0005 34.0674 23.0238 33.847 22.9866 33.6327L22.2656 29.4724L25.3164 26.5318C25.4735 26.3804 25.585 26.1879 25.6382 25.9763C25.6914 25.7646 25.6841 25.5423 25.6173 25.3346C25.5505 25.1269 25.4267 24.9421 25.2601 24.8011C25.0935 24.6602 24.8907 24.5688 24.6748 24.5374L20.4398 23.929L18.5498 20.1297C18.4536 19.9348 18.3045 19.7708 18.1196 19.6565C17.9346 19.5422 17.7213 19.4822 17.5038 19.4834C17.287 19.4826 17.0744 19.5426 16.8899 19.6565C16.7055 19.7705 16.5566 19.9338 16.4603 20.128L14.5598 23.929L10.3341 24.5368C10.118 24.5682 9.91511 24.6595 9.74839 24.8005C9.58167 24.9414 9.45784 25.1264 9.391 25.3342C9.32415 25.542 9.31696 25.7644 9.37025 25.9762C9.42353 26.1879 9.53516 26.3804 9.69243 26.5318L12.7444 29.4724L12.0228 33.6327C11.9851 33.8469 12.0082 34.0673 12.0895 34.2689C12.1709 34.4705 12.3073 34.6453 12.4831 34.7732ZM10.4998 25.6918L15.0276 25.0402C15.1208 25.0269 15.2094 24.9911 15.2858 24.9361C15.3622 24.881 15.4241 24.8083 15.4663 24.7241L17.5033 20.6501L19.5315 24.7229C19.5736 24.8074 19.6356 24.8804 19.7121 24.9357C19.7886 24.991 19.8773 25.0268 19.9708 25.0402L24.5079 25.6918L21.2331 28.8471C21.1645 28.9133 21.1131 28.9952 21.0836 29.0858C21.054 29.1764 21.047 29.2729 21.0633 29.3668L21.8374 33.8334L17.7733 31.7212C17.6903 31.678 17.598 31.6555 17.5044 31.6555C17.4108 31.6555 17.3186 31.678 17.2355 31.7212L13.1708 33.8334L13.9449 29.368C13.9613 29.2741 13.9543 29.1776 13.9247 29.087C13.8951 28.9964 13.8438 28.9144 13.7752 28.8482L10.4998 25.6918Z"></path>
<path d="M2.74173 25.7962L2.17182 29.0915C2.13735 29.2855 2.15788 29.4853 2.23108 29.6683C2.30428 29.8513 2.42724 30.0101 2.58602 30.1268C2.74481 30.2436 2.9331 30.3135 3.12959 30.3288C3.32607 30.344 3.5229 30.304 3.69782 30.2132L6.7084 28.6464L9.71723 30.2167C9.78518 30.2521 9.85944 30.2738 9.93575 30.2805C10.0121 30.2872 10.089 30.2788 10.162 30.2557C10.2351 30.2327 10.3029 30.1955 10.3616 30.1463C10.4203 30.0971 10.4688 30.0368 10.5042 29.9688C10.5395 29.9009 10.5612 29.8266 10.5679 29.7503C10.5746 29.674 10.5662 29.5971 10.5432 29.524C10.5201 29.4509 10.483 29.3831 10.4337 29.3244C10.3845 29.2657 10.3242 29.2173 10.2562 29.1819L6.9779 27.4727C6.89468 27.4294 6.80223 27.4067 6.7084 27.4067C6.61457 27.4067 6.52212 27.4294 6.4389 27.4727L3.36065 29.0763L3.94398 25.693C3.96031 25.5991 3.95337 25.5026 3.92377 25.412C3.89418 25.3214 3.84284 25.2394 3.77423 25.1732L1.29682 22.7816L4.72507 22.2892C4.81833 22.2758 4.90695 22.2399 4.98335 22.1848C5.05974 22.1296 5.12163 22.0568 5.16373 21.9725L6.7084 18.8843L8.24723 21.9719C8.28937 22.0564 8.35141 22.1295 8.42803 22.1848C8.50464 22.2401 8.59354 22.2759 8.68707 22.2892L12.3498 22.8142C12.503 22.8361 12.6586 22.7963 12.7823 22.7034C12.9061 22.6106 12.988 22.4724 13.0099 22.3193C13.0318 22.1661 12.9919 22.0105 12.8991 21.8867C12.8063 21.763 12.6681 21.6811 12.5149 21.6592L9.1549 21.178L7.65165 18.161C7.56436 17.985 7.42948 17.8371 7.26233 17.734C7.09518 17.6309 6.90246 17.5767 6.70607 17.5776H6.70257C6.3059 17.5771 5.94423 17.8016 5.76923 18.1575L4.2584 21.178L0.908316 21.6586C0.711805 21.6848 0.526727 21.7661 0.374489 21.8931C0.222251 22.0201 0.109074 22.1876 0.0480508 22.3762C-0.0129726 22.5649 -0.0193493 22.7669 0.0296582 22.959C0.0786658 23.1511 0.181055 23.3254 0.324982 23.4617L2.74173 25.7962ZM34.9476 22.3744C34.8879 22.1868 34.7762 22.0199 34.6254 21.8933C34.4746 21.7667 34.291 21.6855 34.0959 21.6592L30.7417 21.178L29.2344 18.1581C29.06 17.8016 28.6977 17.5747 28.3011 17.5747H28.2976C28.1011 17.5737 27.9082 17.6278 27.741 17.7309C27.5737 17.834 27.4387 17.982 27.3514 18.1581L25.8487 21.1745L22.4882 21.6557C22.335 21.6776 22.1968 21.7595 22.104 21.8832C22.0112 22.007 21.9713 22.1626 21.9932 22.3158C22.0151 22.4689 22.0969 22.6071 22.2207 22.6999C22.3445 22.7928 22.5001 22.8326 22.6532 22.8107L26.3166 22.2857C26.4101 22.2724 26.499 22.2366 26.5756 22.1813C26.6522 22.126 26.7143 22.0529 26.7564 21.9684L28.2917 18.8843L29.8335 21.9725C29.8756 22.0568 29.9375 22.1296 30.0139 22.1848C30.0903 22.2399 30.1789 22.2758 30.2722 22.2892L33.6987 22.781L31.2212 25.1726C31.1526 25.2388 31.1013 25.3208 31.0717 25.4114C31.0421 25.502 31.0352 25.5985 31.0515 25.6924L31.6377 29.0757L28.5595 27.4704C28.4763 27.427 28.3838 27.4044 28.29 27.4044C28.1962 27.4044 28.1037 27.427 28.0205 27.4704L24.7422 29.1796C24.6742 29.2149 24.6139 29.2634 24.5647 29.3221C24.5154 29.3808 24.4782 29.4486 24.4552 29.5217C24.4322 29.5947 24.4238 29.6716 24.4305 29.748C24.4372 29.8243 24.4588 29.8985 24.4942 29.9665C24.5296 30.0344 24.5781 30.0947 24.6368 30.144C24.6955 30.1932 24.7633 30.2304 24.8363 30.2534C24.9094 30.2764 24.9863 30.2848 25.0626 30.2781C25.139 30.2714 25.2132 30.2498 25.2812 30.2144L28.2917 28.6464L31.3017 30.2167C31.4764 30.3075 31.6729 30.3475 31.8692 30.3324C32.0654 30.3172 32.2535 30.2475 32.4121 30.131C32.5708 30.0145 32.6937 29.856 32.7669 29.6733C32.8402 29.4906 32.8608 29.2911 32.8266 29.0973L32.2584 25.7962L34.6769 23.4629C34.8203 23.3256 34.9219 23.1505 34.9698 22.9578C35.0177 22.7651 35.01 22.5629 34.9476 22.3744ZM14.2917 27.4978C14.3197 27.4978 14.3477 27.4955 14.3757 27.4914L16.5697 27.1758C16.6629 27.1624 16.7514 27.1267 16.8278 27.0716C16.9042 27.0166 16.9661 26.9438 17.0083 26.8596L18.0233 24.8302C18.0598 24.7615 18.0822 24.6861 18.0891 24.6086C18.0961 24.5311 18.0875 24.4529 18.0639 24.3788C18.0402 24.3046 18.002 24.2359 17.9515 24.1768C17.9009 24.1176 17.8391 24.0691 17.7695 24.0341C17.7 23.9991 17.6242 23.9784 17.5465 23.9732C17.4689 23.9679 17.3909 23.9782 17.3173 24.0034C17.2437 24.0287 17.1759 24.0684 17.1178 24.1202C17.0597 24.172 17.0126 24.2349 16.9792 24.3052L16.1042 26.0616L14.2112 26.3341C14.0651 26.3549 13.9323 26.4303 13.8396 26.5452C13.7469 26.6601 13.7012 26.8058 13.7117 26.9531C13.7222 27.1003 13.7881 27.2381 13.8962 27.3386C14.0043 27.4392 14.1465 27.495 14.2941 27.4949L14.2917 27.4978Z"></path>
</g>
</svg>