<svg width="46" height="46" viewBox="0 0 46 46" fill="none" xmlns="http://www.w3.org/2000/svg" class="text-brand absolute hidden sm:block -right-1/4 top-0 transition ease-in-out group-hover:rotate-45 group-hover:-translate-x-4 transform-gpu"><path d="M23.375 0.944336C22.4467 0.944336 21.5565 1.29126 20.9001 1.9088C20.2437 2.52633 19.875 3.3639 19.875 4.23723V15.6514C19.875 16.5248 20.2437 17.3623 20.9001 17.9798C21.5565 18.5973 22.4467 18.9443 23.375 18.9443C24.3033 18.9443 25.1935 18.5973 25.8498 17.9798C26.5062 17.3623 26.875 16.5248 26.875 15.6514V4.23723C26.874 3.36418 26.5049 2.52715 25.8488 1.90981C25.1926 1.29247 24.303 0.945253 23.375 0.944336Z" fill="currentColor"></path><path d="M23.375 27.9443C22.4467 27.9443 21.5565 28.2913 20.9001 28.909C20.2437 29.5266 19.875 30.3644 19.875 31.2379V42.6508C19.875 43.5243 20.2437 44.362 20.9001 44.9797C21.5565 45.5973 22.4467 45.9443 23.375 45.9443C24.3033 45.9443 25.1935 45.5973 25.8498 44.9797C26.5062 44.362 26.875 43.5243 26.875 42.6508V31.2379C26.874 30.3647 26.5049 29.5275 25.8488 28.91C25.1926 28.2925 24.303 27.9453 23.375 27.9443Z" fill="currentColor"></path><path d="M15.5815 19.9443H4.16853C3.29503 19.9443 2.45731 20.3131 1.83965 20.9695C1.22199 21.6258 0.875 22.5161 0.875 23.4443C0.875 24.3726 1.22199 25.2628 1.83965 25.9192C2.45731 26.5756 3.29503 26.9443 4.16853 26.9443H15.5815C16.455 26.9443 17.2927 26.5756 17.9104 25.9192C18.528 25.2628 18.875 24.3726 18.875 23.4443C18.875 22.5161 18.528 21.6258 17.9104 20.9695C17.2927 20.3131 16.455 19.9443 15.5815 19.9443Z" fill="currentColor"></path><path d="M42.5884 19.9443H31.1685C30.295 19.9443 29.4573 20.3131 28.8396 20.9695C28.222 21.6258 27.875 22.5161 27.875 23.4443C27.875 24.3726 28.222 25.2628 28.8396 25.9192C29.4573 26.5756 30.295 26.9443 31.1685 26.9443H42.5815C43.455 26.9443 44.2927 26.5756 44.9104 25.9192C45.528 25.2628 45.875 24.3726 45.875 23.4443C45.875 22.5161 45.528 21.6258 44.9104 20.9695C44.2927 20.3131 43.455 19.9443 42.5815 19.9443H42.5884Z" fill="currentColor"></path></svg>